<mxfile host="app.diagrams.net" agent="Mozilla/5.0 (X11; Linux x86_64) AppleWebKit/537.36 (KHTML, like Gecko) Chrome/131.0.0.0 Safari/537.36" version="25.0.3">
  <diagram name="Page-1" id="_mwodajbnXfc841Qu6q9">
    <mxGraphModel dx="2044" dy="475" grid="1" gridSize="10" guides="1" tooltips="1" connect="1" arrows="1" fold="1" page="1" pageScale="1" pageWidth="1169" pageHeight="827" math="0" shadow="0">
      <root>
        <mxCell id="0" />
        <mxCell id="1" parent="0" />
        <mxCell id="QOIxV5gKI9j92Xg-3ux--1" value="Departamentos" style="whiteSpace=wrap;html=1;align=center;" vertex="1" parent="1">
          <mxGeometry x="486" y="280" width="100" height="40" as="geometry" />
        </mxCell>
        <mxCell id="QOIxV5gKI9j92Xg-3ux--2" value="Nombre" style="ellipse;whiteSpace=wrap;html=1;align=center;" vertex="1" parent="1">
          <mxGeometry x="550" y="200" width="100" height="40" as="geometry" />
        </mxCell>
        <mxCell id="QOIxV5gKI9j92Xg-3ux--3" value="Identificador" style="ellipse;whiteSpace=wrap;html=1;align=center;fontStyle=4;" vertex="1" parent="1">
          <mxGeometry x="410" y="200" width="100" height="40" as="geometry" />
        </mxCell>
        <mxCell id="QOIxV5gKI9j92Xg-3ux--4" value="" style="endArrow=none;html=1;rounded=0;entryX=0.5;entryY=1;entryDx=0;entryDy=0;exitX=0.5;exitY=0;exitDx=0;exitDy=0;" edge="1" parent="1" source="QOIxV5gKI9j92Xg-3ux--1" target="QOIxV5gKI9j92Xg-3ux--3">
          <mxGeometry relative="1" as="geometry">
            <mxPoint x="460" y="300" as="sourcePoint" />
            <mxPoint x="620" y="300" as="targetPoint" />
          </mxGeometry>
        </mxCell>
        <mxCell id="QOIxV5gKI9j92Xg-3ux--5" value="" style="endArrow=none;html=1;rounded=0;entryX=0.5;entryY=1;entryDx=0;entryDy=0;exitX=0.5;exitY=0;exitDx=0;exitDy=0;" edge="1" parent="1" source="QOIxV5gKI9j92Xg-3ux--1" target="QOIxV5gKI9j92Xg-3ux--2">
          <mxGeometry relative="1" as="geometry">
            <mxPoint x="460" y="300" as="sourcePoint" />
            <mxPoint x="620" y="300" as="targetPoint" />
          </mxGeometry>
        </mxCell>
        <mxCell id="QOIxV5gKI9j92Xg-3ux--6" value="Empleados" style="whiteSpace=wrap;html=1;align=center;" vertex="1" parent="1">
          <mxGeometry x="488" y="430" width="100" height="40" as="geometry" />
        </mxCell>
        <mxCell id="QOIxV5gKI9j92Xg-3ux--7" value="Id empleado" style="ellipse;whiteSpace=wrap;html=1;align=center;fontStyle=4;" vertex="1" parent="1">
          <mxGeometry x="270" y="420" width="100" height="40" as="geometry" />
        </mxCell>
        <mxCell id="QOIxV5gKI9j92Xg-3ux--8" value="Nombre" style="ellipse;whiteSpace=wrap;html=1;align=center;" vertex="1" parent="1">
          <mxGeometry x="300" y="480" width="100" height="40" as="geometry" />
        </mxCell>
        <mxCell id="QOIxV5gKI9j92Xg-3ux--9" value="Correos electrónicos" style="ellipse;shape=doubleEllipse;margin=3;whiteSpace=wrap;html=1;align=center;" vertex="1" parent="1">
          <mxGeometry x="290" y="374" width="100" height="40" as="geometry" />
        </mxCell>
        <mxCell id="QOIxV5gKI9j92Xg-3ux--10" value="Departamento" style="ellipse;whiteSpace=wrap;html=1;align=center;" vertex="1" parent="1">
          <mxGeometry x="180" y="480" width="100" height="40" as="geometry" />
        </mxCell>
        <mxCell id="QOIxV5gKI9j92Xg-3ux--11" value="" style="endArrow=none;html=1;rounded=0;exitX=1;exitY=0.5;exitDx=0;exitDy=0;entryX=0;entryY=0.5;entryDx=0;entryDy=0;" edge="1" parent="1" source="QOIxV5gKI9j92Xg-3ux--9" target="QOIxV5gKI9j92Xg-3ux--6">
          <mxGeometry relative="1" as="geometry">
            <mxPoint x="460" y="420" as="sourcePoint" />
            <mxPoint x="480" y="450" as="targetPoint" />
          </mxGeometry>
        </mxCell>
        <mxCell id="QOIxV5gKI9j92Xg-3ux--12" value="" style="endArrow=none;html=1;rounded=0;exitX=1;exitY=0.5;exitDx=0;exitDy=0;entryX=0;entryY=0.5;entryDx=0;entryDy=0;" edge="1" parent="1" source="QOIxV5gKI9j92Xg-3ux--7" target="QOIxV5gKI9j92Xg-3ux--6">
          <mxGeometry relative="1" as="geometry">
            <mxPoint x="460" y="420" as="sourcePoint" />
            <mxPoint x="620" y="420" as="targetPoint" />
          </mxGeometry>
        </mxCell>
        <mxCell id="QOIxV5gKI9j92Xg-3ux--13" value="" style="endArrow=none;html=1;rounded=0;entryX=1;entryY=0;entryDx=0;entryDy=0;exitX=0;exitY=0.5;exitDx=0;exitDy=0;" edge="1" parent="1" source="QOIxV5gKI9j92Xg-3ux--6" target="QOIxV5gKI9j92Xg-3ux--8">
          <mxGeometry relative="1" as="geometry">
            <mxPoint x="460" y="420" as="sourcePoint" />
            <mxPoint x="620" y="420" as="targetPoint" />
          </mxGeometry>
        </mxCell>
        <mxCell id="QOIxV5gKI9j92Xg-3ux--14" value="" style="endArrow=none;html=1;rounded=0;entryX=0.5;entryY=0;entryDx=0;entryDy=0;exitX=0;exitY=0.5;exitDx=0;exitDy=0;" edge="1" parent="1" source="QOIxV5gKI9j92Xg-3ux--6" target="QOIxV5gKI9j92Xg-3ux--10">
          <mxGeometry relative="1" as="geometry">
            <mxPoint x="460" y="420" as="sourcePoint" />
            <mxPoint x="620" y="420" as="targetPoint" />
          </mxGeometry>
        </mxCell>
        <mxCell id="QOIxV5gKI9j92Xg-3ux--15" value="Cod. permiso conducir" style="ellipse;whiteSpace=wrap;html=1;align=center;" vertex="1" parent="1">
          <mxGeometry x="300" y="700" width="100" height="40" as="geometry" />
        </mxCell>
        <mxCell id="QOIxV5gKI9j92Xg-3ux--17" value="" style="verticalLabelPosition=bottom;verticalAlign=top;html=1;shape=mxgraph.basic.acute_triangle;dx=0.5;rotation=-180;" vertex="1" parent="1">
          <mxGeometry x="495" y="520" width="80" height="40" as="geometry" />
        </mxCell>
        <mxCell id="QOIxV5gKI9j92Xg-3ux--18" value="Conductores" style="whiteSpace=wrap;html=1;align=center;" vertex="1" parent="1">
          <mxGeometry x="360" y="600" width="100" height="40" as="geometry" />
        </mxCell>
        <mxCell id="QOIxV5gKI9j92Xg-3ux--19" value="Administrativos" style="whiteSpace=wrap;html=1;align=center;" vertex="1" parent="1">
          <mxGeometry x="485" y="600" width="100" height="40" as="geometry" />
        </mxCell>
        <mxCell id="QOIxV5gKI9j92Xg-3ux--20" value="Técnicos" style="whiteSpace=wrap;html=1;align=center;" vertex="1" parent="1">
          <mxGeometry x="620" y="600" width="100" height="40" as="geometry" />
        </mxCell>
        <mxCell id="QOIxV5gKI9j92Xg-3ux--22" value="Nº. accidentes" style="ellipse;whiteSpace=wrap;html=1;align=center;" vertex="1" parent="1">
          <mxGeometry x="385" y="660" width="100" height="40" as="geometry" />
        </mxCell>
        <mxCell id="QOIxV5gKI9j92Xg-3ux--24" value="Idiomas" style="ellipse;whiteSpace=wrap;html=1;align=center;" vertex="1" parent="1">
          <mxGeometry x="495" y="670" width="100" height="40" as="geometry" />
        </mxCell>
        <mxCell id="QOIxV5gKI9j92Xg-3ux--25" value="Especialidades" style="ellipse;whiteSpace=wrap;html=1;align=center;" vertex="1" parent="1">
          <mxGeometry x="630" y="680" width="100" height="40" as="geometry" />
        </mxCell>
        <mxCell id="QOIxV5gKI9j92Xg-3ux--26" value="" style="endArrow=none;html=1;rounded=0;exitX=0.472;exitY=1.006;exitDx=0;exitDy=0;entryX=0.5;entryY=1;entryDx=0;entryDy=0;entryPerimeter=0;exitPerimeter=0;" edge="1" parent="1" source="QOIxV5gKI9j92Xg-3ux--6" target="QOIxV5gKI9j92Xg-3ux--17">
          <mxGeometry relative="1" as="geometry">
            <mxPoint x="460" y="530" as="sourcePoint" />
            <mxPoint x="620" y="530" as="targetPoint" />
          </mxGeometry>
        </mxCell>
        <mxCell id="QOIxV5gKI9j92Xg-3ux--27" value="" style="endArrow=none;html=1;rounded=0;exitX=0.5;exitY=1;exitDx=0;exitDy=0;entryX=0.434;entryY=0.02;entryDx=0;entryDy=0;entryPerimeter=0;" edge="1" parent="1" source="QOIxV5gKI9j92Xg-3ux--1">
          <mxGeometry relative="1" as="geometry">
            <mxPoint x="464" y="530" as="sourcePoint" />
            <mxPoint x="535.4" y="430.79999999999995" as="targetPoint" />
          </mxGeometry>
        </mxCell>
        <mxCell id="QOIxV5gKI9j92Xg-3ux--28" value="" style="endArrow=none;html=1;rounded=0;exitX=0.5;exitY=0;exitDx=0;exitDy=0;entryX=0;entryY=0;entryDx=60;entryDy=20;entryPerimeter=0;" edge="1" parent="1" source="QOIxV5gKI9j92Xg-3ux--18" target="QOIxV5gKI9j92Xg-3ux--17">
          <mxGeometry relative="1" as="geometry">
            <mxPoint x="460" y="530" as="sourcePoint" />
            <mxPoint x="620" y="530" as="targetPoint" />
          </mxGeometry>
        </mxCell>
        <mxCell id="QOIxV5gKI9j92Xg-3ux--29" value="" style="endArrow=none;html=1;rounded=0;entryX=0.5;entryY=0;entryDx=0;entryDy=0;exitX=0;exitY=0;exitDx=40;exitDy=0;exitPerimeter=0;" edge="1" parent="1" source="QOIxV5gKI9j92Xg-3ux--17" target="QOIxV5gKI9j92Xg-3ux--19">
          <mxGeometry relative="1" as="geometry">
            <mxPoint x="460" y="530" as="sourcePoint" />
            <mxPoint x="620" y="530" as="targetPoint" />
          </mxGeometry>
        </mxCell>
        <mxCell id="QOIxV5gKI9j92Xg-3ux--31" value="" style="endArrow=none;html=1;rounded=0;entryX=0.5;entryY=0;entryDx=0;entryDy=0;exitX=0;exitY=0;exitDx=20;exitDy=20;exitPerimeter=0;" edge="1" parent="1" source="QOIxV5gKI9j92Xg-3ux--17" target="QOIxV5gKI9j92Xg-3ux--20">
          <mxGeometry relative="1" as="geometry">
            <mxPoint x="460" y="530" as="sourcePoint" />
            <mxPoint x="620" y="530" as="targetPoint" />
          </mxGeometry>
        </mxCell>
        <mxCell id="QOIxV5gKI9j92Xg-3ux--36" value="Son" style="text;html=1;align=center;verticalAlign=middle;resizable=0;points=[];autosize=1;strokeColor=none;fillColor=none;" vertex="1" parent="1">
          <mxGeometry x="515" y="520" width="40" height="30" as="geometry" />
        </mxCell>
        <mxCell id="QOIxV5gKI9j92Xg-3ux--37" value="" style="endArrow=none;html=1;rounded=0;entryX=0.5;entryY=1;entryDx=0;entryDy=0;exitX=0.5;exitY=0;exitDx=0;exitDy=0;" edge="1" parent="1" source="QOIxV5gKI9j92Xg-3ux--15" target="QOIxV5gKI9j92Xg-3ux--18">
          <mxGeometry relative="1" as="geometry">
            <mxPoint x="460" y="700" as="sourcePoint" />
            <mxPoint x="620" y="700" as="targetPoint" />
          </mxGeometry>
        </mxCell>
        <mxCell id="QOIxV5gKI9j92Xg-3ux--38" value="" style="endArrow=none;html=1;rounded=0;exitX=0.5;exitY=1;exitDx=0;exitDy=0;entryX=0.5;entryY=0;entryDx=0;entryDy=0;" edge="1" parent="1" source="QOIxV5gKI9j92Xg-3ux--18" target="QOIxV5gKI9j92Xg-3ux--22">
          <mxGeometry relative="1" as="geometry">
            <mxPoint x="460" y="700" as="sourcePoint" />
            <mxPoint x="620" y="700" as="targetPoint" />
          </mxGeometry>
        </mxCell>
        <mxCell id="QOIxV5gKI9j92Xg-3ux--39" value="" style="endArrow=none;html=1;rounded=0;exitX=0.462;exitY=0.996;exitDx=0;exitDy=0;exitPerimeter=0;" edge="1" parent="1" source="QOIxV5gKI9j92Xg-3ux--19" target="QOIxV5gKI9j92Xg-3ux--24">
          <mxGeometry relative="1" as="geometry">
            <mxPoint x="460" y="700" as="sourcePoint" />
            <mxPoint x="620" y="700" as="targetPoint" />
          </mxGeometry>
        </mxCell>
        <mxCell id="QOIxV5gKI9j92Xg-3ux--40" value="" style="endArrow=none;html=1;rounded=0;exitX=0.5;exitY=1;exitDx=0;exitDy=0;entryX=0.5;entryY=0;entryDx=0;entryDy=0;" edge="1" parent="1" source="QOIxV5gKI9j92Xg-3ux--20" target="QOIxV5gKI9j92Xg-3ux--25">
          <mxGeometry relative="1" as="geometry">
            <mxPoint x="460" y="700" as="sourcePoint" />
            <mxPoint x="620" y="700" as="targetPoint" />
          </mxGeometry>
        </mxCell>
        <mxCell id="QOIxV5gKI9j92Xg-3ux--44" value="Vehículos" style="whiteSpace=wrap;html=1;align=center;" vertex="1" parent="1">
          <mxGeometry x="40" y="600" width="100" height="40" as="geometry" />
        </mxCell>
        <mxCell id="QOIxV5gKI9j92Xg-3ux--45" value="Marca" style="ellipse;whiteSpace=wrap;html=1;align=center;" vertex="1" parent="1">
          <mxGeometry x="-110" y="600" width="100" height="40" as="geometry" />
        </mxCell>
        <mxCell id="QOIxV5gKI9j92Xg-3ux--46" value="Matrícula" style="ellipse;whiteSpace=wrap;html=1;align=center;fontStyle=4;" vertex="1" parent="1">
          <mxGeometry x="-70" y="540" width="100" height="40" as="geometry" />
        </mxCell>
        <mxCell id="QOIxV5gKI9j92Xg-3ux--47" value="" style="endArrow=none;html=1;rounded=0;exitX=1;exitY=0.5;exitDx=0;exitDy=0;entryX=0;entryY=0.5;entryDx=0;entryDy=0;" edge="1" parent="1" source="QOIxV5gKI9j92Xg-3ux--44" target="QOIxV5gKI9j92Xg-3ux--18">
          <mxGeometry relative="1" as="geometry">
            <mxPoint x="220" y="730" as="sourcePoint" />
            <mxPoint x="380" y="730" as="targetPoint" />
          </mxGeometry>
        </mxCell>
        <mxCell id="QOIxV5gKI9j92Xg-3ux--48" value="Conducen" style="shape=rhombus;perimeter=rhombusPerimeter;whiteSpace=wrap;html=1;align=center;" vertex="1" parent="1">
          <mxGeometry x="180" y="590" width="120" height="60" as="geometry" />
        </mxCell>
        <mxCell id="QOIxV5gKI9j92Xg-3ux--49" value="" style="endArrow=none;html=1;rounded=0;exitX=0.5;exitY=1;exitDx=0;exitDy=0;entryX=0;entryY=0.5;entryDx=0;entryDy=0;" edge="1" parent="1" source="QOIxV5gKI9j92Xg-3ux--46" target="QOIxV5gKI9j92Xg-3ux--44">
          <mxGeometry relative="1" as="geometry">
            <mxPoint x="220" y="730" as="sourcePoint" />
            <mxPoint x="380" y="730" as="targetPoint" />
          </mxGeometry>
        </mxCell>
        <mxCell id="QOIxV5gKI9j92Xg-3ux--50" value="" style="endArrow=none;html=1;rounded=0;exitX=1;exitY=0.5;exitDx=0;exitDy=0;entryX=0;entryY=0.5;entryDx=0;entryDy=0;" edge="1" parent="1" source="QOIxV5gKI9j92Xg-3ux--45" target="QOIxV5gKI9j92Xg-3ux--44">
          <mxGeometry relative="1" as="geometry">
            <mxPoint x="220" y="730" as="sourcePoint" />
            <mxPoint x="380" y="730" as="targetPoint" />
          </mxGeometry>
        </mxCell>
        <mxCell id="QOIxV5gKI9j92Xg-3ux--51" value="Fecha conducción" style="ellipse;whiteSpace=wrap;html=1;align=center;" vertex="1" parent="1">
          <mxGeometry x="190" y="670" width="100" height="40" as="geometry" />
        </mxCell>
        <mxCell id="QOIxV5gKI9j92Xg-3ux--52" value="" style="endArrow=none;html=1;rounded=0;exitX=0.5;exitY=0;exitDx=0;exitDy=0;entryX=0.5;entryY=1;entryDx=0;entryDy=0;" edge="1" parent="1" source="QOIxV5gKI9j92Xg-3ux--51" target="QOIxV5gKI9j92Xg-3ux--48">
          <mxGeometry relative="1" as="geometry">
            <mxPoint x="220" y="730" as="sourcePoint" />
            <mxPoint x="380" y="730" as="targetPoint" />
          </mxGeometry>
        </mxCell>
      </root>
    </mxGraphModel>
  </diagram>
</mxfile>
